<svg viewBox="0 0 50 50" fill="none" xmlns="http://www.w3.org/2000/svg"><path d="M22.318 19.124c.042-1.953.553-3.083 2.328-3.083 1.424 0 2.008.885 2.008 2.25 0 1.718-.353 2.046-2.28 2.587-1.776.501-4.14.916-5.722 1.84-1.575.917-2.602 3.124-2.602 5.766 0 4.872 2.091 6.88 5.678 6.88 2.134 0 4.141-1.168 5.01-3.173h.086c.024.879.11 1.8.346 2.587h6.148c-.743-.997-.743-3.176-.743-4.881V18.29c0-4.753-2.328-6.67-7.576-6.67-2.639 0-4.456.372-5.946 1.451-1.502 1.087-2.365 2.97-2.408 6.053h5.673zm-.115 8.688c0-1.259.316-1.97.985-2.5.59-.503 1.459-.547 3.466-1.677 0 .917-.03 2.095-.03 3.968 0 2.246-1.23 3.088-2.566 3.088-1.186 0-1.855-1.083-1.855-2.879zM2 6h9.977v4.675H7.91V38.8h4.067v4.669H2V6zM37.652 39.065h4.062V10.94h-4.062V6.266h9.966v37.468h-9.966v-4.67z" fill="currentColor"/></svg>
