<svg viewbox="0 0 17 17" xmlns="http://www.w3.org/2000/svg" fill="none"><g fill-rule="evenodd"><path d="M14.506 12.63c-1.758 1.296-4.305 1.986-6.498 1.986-3.081 0-5.845-1.137-7.94-3.03-.159-.148-.016-.351.181-.235 2.26 1.316 5.06 2.107 7.943 2.107 2.082-.01 4.141-.43 6.06-1.239.297-.126.547.195.254.41zm.731-.837c-.223-.287-1.485-.135-2.05-.069-.173.021-.199-.129-.044-.237 1.01-.706 2.653-.503 2.846-.265.192.237-.05 1.89-.994 2.68-.145.12-.283.056-.212-.105.212-.529.687-1.716.462-2.004M9.585 6.75c0 .579.015 1.062-.291 1.577-.251.417-.645.675-1.077.675-.598 0-.948-.435-.948-1.077 0-1.267 1.189-1.498 2.316-1.498v.322zm1.57 3.625a.337.337 0 0 1-.368.035c-.516-.41-.61-.6-.893-.991-.854.832-1.46 1.081-2.565 1.081C6.018 10.5 5 9.728 5 8.182c0-1.207.683-2.03 1.66-2.431.844-.356 2.024-.418 2.925-.514V5.05c0-.354.03-.772-.19-1.078-.188-.274-.551-.387-.873-.387-.593 0-1.12.291-1.25.894-.026.137-.129.265-.27.272l-1.514-.162c-.126-.027-.268-.125-.231-.308C5.606 2.528 7.26 2 8.74 2c.758 0 1.747.193 2.344.74.758.676.685 1.578.685 2.56v2.318c0 .697.303 1.002.587 1.379.099.137.12.294-.006.395-.402.324-.8.654-1.193.987l-.002-.004" fill="currentColor"/></g></svg>
