<svg viewBox="0 0 50 50" fill="none" xmlns="http://www.w3.org/2000/svg"><path d="M13.361 44.998a1.505 1.505 0 01-1.036-.347 1.366 1.366 0 01-.316-1.042V8.177c-.044-.376.07-.753.316-1.043a1.504 1.504 0 011.019-.295h3.897a1.384 1.384 0 011.51 1.164l.386 1.39a11.956 11.956 0 013.898-2.484 12.604 12.604 0 014.67-.904 10.07 10.07 0 018.217 3.787 15.84 15.84 0 013.055 10.23 18.425 18.425 0 01-1.51 7.73 12.181 12.181 0 01-4.09 5.088 10.197 10.197 0 01-5.935 1.737 12.728 12.728 0 01-4.214-.695 10.15 10.15 0 01-3.388-1.91v11.672a1.45 1.45 0 01-.299 1.042c-.3.229-.678.333-1.053.295l-5.127.017zm11.816-16.257a5.082 5.082 0 004.442-2.032 11.263 11.263 0 001.422-6.374 11.551 11.551 0 00-1.404-6.444 5.062 5.062 0 00-4.478-2.032 10.352 10.352 0 00-5.267 1.441v13.982a9.979 9.979 0 005.267 1.477l.018-.018z" fill="currentColor"/></svg>
