<svg viewBox="0 0 50 50" fill="none" xmlns="http://www.w3.org/2000/svg"><path d="M20.383 27.7s-1.45.099-2.449.205c-1.27.132-3.657.528-5.034 1.002-.413.142-1.253.48-1.326.889-.076.424.197.755.501 1.098.176.199 1.17 1.12 1.45 1.343 1.169.94 3.54 2.388 5.287 3.092.6.239 1.592.58 1.592.58s-.074-2.719-.06-5.397c.007-1.413.039-2.812.039-2.812zm26.597 1.082c.083.73-.112 2.112-.146 2.294-.062.42-.391 1.389-.446 1.507-.265.588-.527 1.07-.805 1.552-.476.823-1.607 2.13-2.278 2.688-2.497 2.076-6.362 3.259-9.678 3.648-2.25.262-4.835.223-7.22-.201a58.38 58.38 0 01-2.04-.415s.003.47-.036.8a3.23 3.23 0 01-.203.676c-.173.345-.458.523-.872.6-.5.088-1.03.118-1.49-.072-.758-.306-1.03-.989-1.162-1.775-.107-.63-.22-1.723-.22-1.723s-.566-.259-1.039-.486a27.105 27.105 0 01-4.037-2.38 50.303 50.303 0 01-2.087-1.684c-.889-.812-1.688-1.62-2.296-2.656-.473-.81-.61-1.528-.25-2.386.496-1.196 2.278-2.096 3.497-2.609.895-.38 3.678-1.255 4.834-1.416.546-.076 1.393-.222 1.445-.254a.324.324 0 00.052-.046c.026-.036.071-1.22.062-1.653-.01-.425.328-3.221.437-3.813.056-.32.308-1.55.565-1.873.168-.219.465-.201.708-.058 1.326.793 1.728 3.545 1.827 4.945.059.852.088 2.135.088 2.135s1.521-.043 2.457-.017c.91.02 1.911.158 2.855.303 1.208.186 3.563.68 4.914 1.34 1.112.542 2.153 1.456 2.49 2.423.314.887.267 1.5-.21 2.301-.537.904-1.552 1.576-2.581 1.632-.307.017-1.46-.13-1.814-.395-.14-.105-.132-.295-.032-.424.038-.046.577-.321.895-.482.16-.084.291-.174.416-.283.264-.224.502-.47.476-.759-.037-.375-.45-.606-.842-.755-1.845-.705-5.527-1.29-7.307-1.392-.696-.039-1.687-.072-1.687-.072L24.43 37s.819.15 1.464.251c.37.054 1.94.19 2.357.2 3.175.08 6.72-.193 9.633-1.516 1.28-.58 2.453-1.3 3.342-2.277a6.45 6.45 0 001.622-4.907c-.178-2.017-1.653-4.41-2.831-5.869-3.113-3.851-8.448-7.02-13.142-8.877-4.793-1.895-9.53-2.986-14.615-3.168-1.311-.047-4.17.017-5.615.402-.207.056-.415.122-.606.164-.152.035-.39.132-.456.183-.036.028-.072.067-.072.067s.09.048.174.082c.153.064.798.103 1.131.162.298.054.609.204.732.415.117.2.131.357-.008.524-.328.383-1.56.319-2.103.236-.564-.086-1.266-.253-1.395-.725-.15-.556.125-1.102.422-1.606.596-1.01 1.45-1.534 2.701-1.862 1.777-.47 4.02-.8 5.698-.861 3.796-.138 7.39.5 11.069 1.575 2.105.613 4.862 1.64 6.88 2.576 1.448.671 3.73 1.907 5.011 2.714.404.257 2.77 1.93 3.137 2.223a38.43 38.43 0 012.495 2.163c1.405 1.34 3.152 3.392 4 5.022.205.39.363.774.627 1.226.09.155.478 1.081.543 1.35.063.264.157.653.17.669.019.142.199.938.185 1.245z" fill="currentColor"/></svg>
