<svg viewBox="0 0 20 20" fill="none" xmlns="http://www.w3.org/2000/svg"><path d="M7.25 19c1.794 0 3.25-1.344 3.25-3v-3H7.25c-1.793 0-3.249 1.344-3.249 3s1.456 3 3.25 3z" fill="#0ACF83"/><path d="M4.001 10c0-1.656 1.456-3 3.25-3H10.5v6H7.25c-1.793 0-3.249-1.344-3.249-3z" fill="#A259FF"/><path d="M4.002 4c0-1.656 1.455-3 3.249-3h3.25v6H7.25C5.457 7 4 5.656 4 4z" fill="#F24E1E"/><path d="M10.5 1h3.25c1.793 0 3.249 1.344 3.249 3s-1.456 3-3.25 3H10.5V1z" fill="#FF7262"/><path d="M16.999 10c0 1.656-1.456 3-3.25 3-1.793 0-3.249-1.344-3.249-3s1.456-3 3.25-3c1.793 0 3.249 1.344 3.249 3z" fill="#1ABCFE"/></svg>
