<svg xmlns="http://www.w3.org/2000/svg" viewBox="0 0 512 512" fill="#EFD81D"><path d="M0 0v512h512V0H0zm274.286 397.714c0 49.84-29.44 74.137-72.057 74.137-38.492 0-60.835-19.931-72.172-43.988l39.177-23.714c7.555 13.405 13.292 24.742 29.783 24.742 13.714 0 24.983-6.182 24.983-30.24V237.714h50.286v160zm113.543 72.995c-44.675 0-73.543-20.16-87.635-48L339.429 400c10.285 16.846 23.714 28.069 47.428 28.069 19.932 0 31.509-8.823 31.509-22.572 0-16.491-11.92-22.331-33.92-32l-12.023-5.166c-34.72-14.765-57.737-33.325-57.737-72.514 0-36.08 27.485-62.434 70.445-62.434 30.595 0 52.572 9.508 68.4 37.348L416 294.857c-8.251-14.777-17.143-20.571-30.926-20.571-14.091 0-23.028 8.937-23.028 20.571 0 14.434 8.937 20.274 29.554 29.212l12.023 5.154c40.903 17.531 63.931 35.428 63.931 75.611.012 43.315-34.011 65.875-79.725 65.875z"/></svg>