<svg xmlns="http://www.w3.org/2000/svg" viewBox="0 0 400 400"><path d="M224.093 141.297l-11.838 20.842-40.483-71.297L47.494 309.683h84.144c0 11.511 9.178 20.842 20.498 20.842H47.494c-7.322 0-14.088-3.975-17.749-10.423a21.145 21.145 0 01.001-20.84l124.278-218.84C157.685 73.971 164.453 70 171.776 70c7.324 0 14.091 3.973 17.752 10.421l34.565 60.876z" fill="#00C58E"/><path d="M314.164 299.4l-77.876-137.123-11.837-20.842-11.838 20.842L134.746 299.4a21.147 21.147 0 00-.001 20.84c3.661 6.448 10.427 10.422 17.749 10.422H296.39c7.324 0 14.093-3.97 17.755-10.419a21.14 21.14 0 00.001-20.843h.018zm-161.67 10.421l71.957-126.702 71.939 126.702H152.494z" fill="#2D3748"/><path d="M369.484 320.104c-3.661 6.447-10.426 10.421-17.748 10.421h-55.704c11.321 0 20.498-9.331 20.498-20.842h35.163l-99.774-175.706-15.988 28.162-11.838-20.841 10.078-17.742c3.662-6.449 10.429-10.422 17.752-10.422 7.324 0 14.091 3.973 17.752 10.422l99.809 175.706a21.148 21.148 0 010 20.842z" fill="#108775"/></svg>