<svg viewBox="0 0 24 24" fill="none" xmlns="http://www.w3.org/2000/svg"><g clip-path="url(#prefix__clip0)" fill="#8B5CF6"><path d="M2.778 8.054h3.098c.91.01 1.569.354 1.977 1.03.409.677.544 1.6.405 2.772a6.6 6.6 0 01-.358 1.576c-.178.515-.424.98-.74 1.393-.386.526-.798.859-1.237 1-.44.142-.894.212-1.364.212H3.17l-.44 2.879H1.126L2.778 8.054zm1.353 1.727l-.694 4.545c.046.01.093.015.139.015h.162c.74.01 1.356-.086 1.85-.288.493-.212.824-.95.994-2.212.138-1.06 0-1.671-.417-1.833-.408-.161-.92-.237-1.537-.227-.093.01-.181.015-.266.015h-.243l.012-.015M10.088 5.16h1.596l-.451 2.894h1.433c.787.02 1.372.233 1.758.636.393.404.508 1.172.346 2.303l-.774 5.044h-1.619l.74-4.817c.077-.505.054-.863-.07-1.075-.122-.212-.388-.318-.797-.318l-1.283-.016-.948 6.226H8.424l1.664-10.876zM16.484 8.054h3.098c.91.01 1.568.354 1.977 1.03.408.677.543 1.6.404 2.772a6.6 6.6 0 01-.358 1.576c-.177.515-.424.98-.74 1.393-.385.526-.798.859-1.237 1-.44.142-.894.212-1.364.212h-1.387l-.44 2.879H14.83l1.654-10.862zm1.352 1.727l-.693 4.545c.046.01.092.015.138.015h.162c.74.01 1.357-.086 1.85-.288.493-.212.825-.95.994-2.212.139-1.06 0-1.671-.416-1.833-.409-.161-.921-.237-1.538-.227-.092.01-.18.015-.266.015h-.242l.011-.015"/></g><defs><clipPath id="prefix__clip0"><path fill="#fff" transform="translate(1.125 4.875)" d="M0 0h21.813v14.291H0z"/></clipPath></defs></svg>