<svg xmlns="http://www.w3.org/2000/svg" viewBox="0 0 512 512" fill="currentColor"><path fill="currentColor" d="M459.17 105H52.83a30.35 30.35 0 00-30.34 30.34v241.32A30.35 30.35 0 0052.83 407h406.34a30.35 30.35 0 0030.34-30.34V135.34A30.35 30.35 0 00459.17 105zm-185 94.4a13.93 13.93 0 019.9-4.11h90.29a14 14 0 010 28H284a14 14 0 01-9.9-23.91zm-63.64 63.11L92.14 330.83a7.51 7.51 0 01-11.27-6.51V187.68a7.51 7.51 0 0111.27-6.51l118.34 68.32a7.52 7.52 0 010 13.02zm231.28 50.09a13.93 13.93 0 01-9.9 4.11H284a14 14 0 010-28h147.91a14 14 0 019.9 23.91zm0-46.7a13.93 13.93 0 01-9.9 4.11H284a14 14 0 010-28h147.91a14 14 0 019.9 23.91z"/></svg>
