<svg viewBox="0 0 20 20" fill="none" xmlns="http://www.w3.org/2000/svg"><path d="M10 1a9 9 0 100 18 9 9 0 000-18zm4.127 12.98a.56.56 0 01-.771.187c-2.114-1.291-4.774-1.583-7.906-.868a.561.561 0 01-.25-1.094c3.428-.783 6.369-.446 8.741 1.004a.561.561 0 01.186.772zm1.102-2.45a.701.701 0 01-.965.231c-2.42-1.487-6.107-1.917-8.968-1.049a.703.703 0 01-.408-1.342c3.268-.992 7.332-.512 10.11 1.196.33.203.434.634.23.964zm.094-2.552c-2.9-1.723-7.686-1.881-10.455-1.04a.842.842 0 11-.489-1.612c3.18-.965 8.464-.778 11.804 1.204a.84.84 0 11-.86 1.448z" fill="#1ED760"/></svg>
