<svg fill="none" xmlns="http://www.w3.org/2000/svg" viewbox="0 0 50 50"><path fill-rule="evenodd" clip-rule="evenodd" d="M14 20.8c1.466-5.866 5.134-8.8 11-8.8 8.8 0 9.9 6.6 14.3 7.7 2.934.733 5.5-.366 7.7-3.3-1.467 5.866-5.134 8.8-11 8.8-8.8 0-9.9-6.6-14.3-7.7-2.934-.734-5.5.366-7.7 3.3zM3 34c1.466-5.866 5.134-8.8 11-8.8 8.8 0 9.9 6.6 14.3 7.7 2.933.733 5.5-.367 7.7-3.3-1.467 5.866-5.134 8.8-11 8.8-8.8 0-9.9-6.6-14.3-7.7-2.934-.734-5.5.366-7.7 3.3z" fill="url(#prefix__paint0_linear)"/><defs><linearGradient id="prefix__paint0_linear" x1="3" y1="-11.466" x2="47" y2="61.866" gradientUnits="userSpaceOnUse"><stop stop-color="#2383AE"/><stop offset="1" stop-color="#6DD7B9"/></linearGradient></defs></svg>