<svg viewBox="0 0 24 24" fill="none" xmlns="http://www.w3.org/2000/svg"><g clip-path="url(#prefix__prefix__clip0)"><path d="M12.694 4.687A3.97 3.97 0 008.729.72c-2.304 0-3.682 1.728-3.682 3.4h2.266c0-.471.44-1.134 1.416-1.134.938 0 1.7.763 1.7 1.7 0 .937-.684 1.7-2.409 1.7H1.85v2.266h6.17c2.912 0 4.675-1.78 4.675-3.966zm0 0A3.97 3.97 0 008.729.72c-2.304 0-3.682 1.728-3.682 3.4h2.266c0-.471.44-1.134 1.416-1.134.938 0 1.7.763 1.7 1.7 0 .937-.684 1.7-2.409 1.7H1.85v2.266h6.17c2.912 0 4.675-1.78 4.675-3.966z" fill="url(#prefix__prefix__paint0_linear)"/><path d="M17.722 19.313a3.97 3.97 0 01-3.966 3.966c-2.305 0-3.683-1.728-3.683-3.4h2.267c0 .471.44 1.134 1.416 1.134.937 0 1.7-.763 1.7-1.7 0-.937-.862-1.7-2.409-1.7H6.2v-2.266h6.847c2.911 0 4.675 1.78 4.675 3.966zm0 0a3.97 3.97 0 01-3.966 3.966c-2.305 0-3.683-1.728-3.683-3.4h2.267c0 .471.44 1.134 1.416 1.134.937 0 1.7-.763 1.7-1.7 0-.937-.862-1.7-2.409-1.7H6.2v-2.266h6.847c2.911 0 4.675 1.78 4.675 3.966z" fill="url(#prefix__prefix__paint1_linear)"/><path d="M18.316 4.217c-2.5 0-4.263 1.901-4.263 4.401h2.008c0-1.243.902-2.145 2.255-2.145 1.354 0 2.03.902 2.03 2.145 0 1.243-.878 2.266-3.27 2.266H1.849v2.267h15.565c3.542 0 5.188-2.277 5.188-4.533 0-2.5-1.691-4.4-4.286-4.4z" fill="url(#prefix__prefix__paint2_linear)"/><path d="M4.82 15.347H1.849v2.286h2.97v-2.286z" fill="url(#prefix__prefix__paint3_linear)"/></g><defs><linearGradient id="prefix__prefix__paint0_linear" x1="3.653" y1="2.638" x2="16.737" y2="23.279" gradientUnits="userSpaceOnUse"><stop offset=".078" stop-color="#54C8F1"/><stop offset=".573" stop-color="#41A2EF"/><stop offset="1" stop-color="#3386EE"/></linearGradient><linearGradient id="prefix__prefix__paint1_linear" x1="3.653" y1="2.638" x2="16.737" y2="23.279" gradientUnits="userSpaceOnUse"><stop offset=".078" stop-color="#54C8F1"/><stop offset=".573" stop-color="#41A2EF"/><stop offset="1" stop-color="#3386EE"/></linearGradient><linearGradient id="prefix__prefix__paint2_linear" x1="3.653" y1="2.638" x2="16.737" y2="23.279" gradientUnits="userSpaceOnUse"><stop offset=".078" stop-color="#54C8F1"/><stop offset=".573" stop-color="#41A2EF"/><stop offset="1" stop-color="#3386EE"/></linearGradient><linearGradient id="prefix__prefix__paint3_linear" x1="3.653" y1="2.638" x2="16.737" y2="23.279" gradientUnits="userSpaceOnUse"><stop offset=".078" stop-color="#54C8F1"/><stop offset=".573" stop-color="#41A2EF"/><stop offset="1" stop-color="#3386EE"/></linearGradient><clipPath id="prefix__prefix__clip0"><path fill="#fff" d="M0 0h24v24H0z"/></clipPath></defs></svg>
