<svg viewBox="0 0 20 20" fill="none" xmlns="http://www.w3.org/2000/svg"><path d="M18.576 5.91a2.117 2.117 0 00-.58-.954 2.276 2.276 0 00-1.002-.552c-1.388-.36-6.971-.36-6.971-.36s-5.584.01-6.97.37a2.276 2.276 0 00-1.003.553 2.117 2.117 0 00-.58.953c-.42 2.346-.582 5.92.012 8.171.102.36.302.69.58.953.277.264.623.455 1.002.552 1.387.36 6.97.36 6.97.36s5.584 0 6.971-.36a2.276 2.276 0 001.002-.552c.278-.264.478-.593.58-.953.443-2.349.58-5.92-.011-8.182z" fill="red"/><path d="M8.246 12.553L12.878 10 8.246 7.447v5.106z" fill="#fff"/></svg>
