<svg xmlns="http://www.w3.org/2000/svg" id="Слой_1" data-name="Слой 1" viewBox="0 0 499 125">
	<defs>
		<style>
			.cls-1{fill:#7289da}.cls-2{fill:#fff;fill-rule:evenodd}
		</style>
	</defs>
	<title>
		logo_round
	</title>
	<circle cx="65.5" cy="62.5" r="62" class="cls-1" />
	<path d="M102.41,34.69H27.59A5.59,5.59,0,0,0,22,40.28V84.72a5.59,5.59,0,0,0,5.59,5.59h74.82A5.59,5.59,0,0,0,108,84.72V40.28A5.59,5.59,0,0,0,102.41,34.69ZM68.34,52.08a2.54,2.54,0,0,1,1.82-.76H86.79a2.59,2.59,0,0,1,2.58,2.58,2.59,2.59,0,0,1-2.58,2.58H70.16a2.59,2.59,0,0,1-2.58-2.58A2.54,2.54,0,0,1,68.34,52.08ZM56.62,63.7,34.83,76.28a1.39,1.39,0,0,1-2.08-1.2V49.92a1.39,1.39,0,0,1,2.08-1.2L56.62,61.3A1.39,1.39,0,0,1,56.62,63.7Zm42.6,9.22a2.59,2.59,0,0,1-1.83.76H70.16a2.59,2.59,0,0,1-2.58-2.58,2.59,2.59,0,0,1,2.58-2.58H97.39a2.58,2.58,0,0,1,1.83,4.4Zm0-8.6a2.59,2.59,0,0,1-1.83.76H70.16a2.59,2.59,0,0,1-2.58-2.58,2.59,2.59,0,0,1,2.58-2.58H97.39a2.58,2.58,0,0,1,1.83,4.4Z" class="cls-2" />
	<path d="M161.73,28.21h27.42c16.76,0,25.09,12.11,25.09,24.21s-8.43,24.32-25,24.32H179.07V96.79H161.73Zm27.42,33.13c10.46.09,10.46-17.05,0-17H179.07v17Z" class="cls-1" />
	<path d="M242.24,75h-3.1V96.79H221.6V28.21H249c14.14,0,25.09,6.49,25.48,22.57,0,12.69-5.14,19.86-13.47,22.47l18.7,23.54h-21.6Zm7.07-14.92c10.95,0,10.95-15.7,0-15.7H239.14v15.7Z" class="cls-1" />
	<path d="M301.72,55.14h27.81v15H301.72V80.42H332V96.79H284.19V28.21H332V44.48H301.72Z" class="cls-1" />
	<path d="M341.15,28.21h17.34l14.44,33.52,14.53-33.52H404.8V96.79H387.36l.1-19.76,1.07-13.85-.59-.1-9,23.54H367l-9.2-23.54-.49.1L358.49,77V96.79H341.15Z" class="cls-1" />
	<path d="M433,96.79H415.66V28.21H433Z" class="cls-1" />
	<path d="M460.83,28.3c14.53.29,16.57.39,20.54,2.13a23,23,0,0,1,12.79,11.82C495.9,46,496,47.1,496,62.79c0,15.89-.1,16.76-1.84,20.73a21.81,21.81,0,0,1-13.27,11.63c-4.17,1.45-6.49,1.64-20.93,1.64H443.69V80.62h14.53c15.21,0,18.21-.59,19.37-3.49.2-.68.49-7.46.49-15V48.26l-2-1.55c-1.64-1.36-3.1-1.65-8.33-1.65h-6.49V58.63c0,7.36-.19,13.46-.39,13.46s-4.26-3.39-8.81-7.46l-8.33-7.46V43.12c0-7.65.19-14.24.58-14.53S452,28.11,460.83,28.3Z" class="cls-1" />
</svg>
