<svg width="100" height="100" viewBox="0 0 100 100" fill="none" xmlns="http://www.w3.org/2000/svg">
<path d="M29.6187 12.3391C32.0917 12.3391 34.7092 12.4274 37.4712 12.6041C40.2493 12.7807 43.1398 13.1259 46.1427 13.6398V19.758C44.7938 19.3726 43.4288 19.0595 42.0478 18.8186C40.6668 18.5617 39.2778 18.3609 37.8807 18.2164C36.4997 18.0719 35.1187 17.9675 33.7377 17.9033C32.3567 17.839 30.9837 17.7989 29.6187 17.7828C28.9604 17.7828 28.2297 17.7989 27.4268 17.831C26.64 17.8471 25.7969 17.8792 24.8976 17.9274C24.0144 17.9755 23.0831 18.0478 22.1035 18.1441C21.124 18.2405 20.1283 18.3609 19.1167 18.5054V27.2732H40.169V33.1987H19.1167V42.8818C20.6743 43.1066 22.2962 43.2752 23.9823 43.3877C25.6684 43.5001 27.5472 43.5563 29.6187 43.5563C32.4129 43.5563 35.191 43.4198 37.953 43.1468C40.715 42.8738 43.4449 42.3519 46.1427 41.5811V47.6993C43.1398 48.2131 40.2573 48.5584 37.4953 48.735C34.7333 48.9117 32.1399 49 29.7151 49C27.2421 49 24.6166 48.9117 21.8385 48.735C19.0765 48.5584 16.178 48.2131 13.143 47.6993V13.6398C16.178 13.1259 19.0765 12.7807 21.8385 12.6041C24.6006 12.4274 27.194 12.3391 29.6187 12.3391ZM69.3147 12.2909C71.7395 12.2909 74.0277 12.5077 76.1795 12.9413C78.3313 13.3748 80.2102 13.977 81.816 14.7478C83.4379 15.5186 84.7225 16.442 85.67 17.5179C86.6174 18.5938 87.0911 19.774 87.0911 21.0587V24.9608H80.8284V22.8893C80.8284 22.1988 80.5634 21.5404 80.0335 20.9142C79.5036 20.2879 78.7408 19.7339 77.7452 19.2522C76.7657 18.7704 75.5613 18.393 74.1321 18.12C72.719 17.831 71.1132 17.6865 69.3147 17.6865C67.5804 17.6865 66.0067 17.823 64.5935 18.096C63.1804 18.369 61.968 18.7383 60.9564 19.204C59.9447 19.6697 59.1659 20.2237 58.6199 20.866C58.0739 21.4923 57.8009 22.1667 57.8009 22.8893V38.4979C57.8009 39.2045 58.0739 39.8789 58.6199 40.5213C59.1659 41.1475 59.9447 41.7015 60.9564 42.1833C61.968 42.649 63.1804 43.0183 64.5935 43.2913C66.0067 43.5643 67.5804 43.7008 69.3147 43.7008C71.1132 43.7008 72.719 43.5643 74.1321 43.2913C75.5613 43.0023 76.7657 42.6169 77.7452 42.1351C78.7408 41.6534 79.5036 41.0994 80.0335 40.4731C80.5634 39.8468 80.8284 39.1884 80.8284 38.4979V35.0294C79.335 35.0294 77.9941 35.0695 76.8058 35.1498C75.6336 35.2301 74.6299 35.3104 73.7949 35.3907C72.8154 35.5031 71.9482 35.6235 71.1935 35.752L71.8197 29.9228C74.2766 29.7301 76.589 29.6338 78.7569 29.6338C81.6634 29.6338 84.4415 29.7783 87.0911 30.0674V40.3286C87.0911 41.6132 86.6174 42.7935 85.67 43.8694C84.7225 44.9292 83.4379 45.8446 81.816 46.6154C80.2102 47.3861 78.3313 47.9883 76.1795 48.4219C74.0277 48.8394 71.7395 49.0482 69.3147 49.0482C66.8899 49.0482 64.6016 48.8394 62.4498 48.4219C60.298 47.9883 58.4111 47.3861 56.7893 46.6154C55.1834 45.8446 53.9068 44.9292 52.9594 43.8694C52.0119 42.7935 51.5382 41.6132 51.5382 40.3286V21.0587C51.5382 19.774 52.0119 18.5938 52.9594 17.5179C53.9068 16.442 55.1834 15.5186 56.7893 14.7478C58.4111 13.977 60.298 13.3748 62.4498 12.9413C64.6016 12.5077 66.8899 12.2909 69.3147 12.2909ZM28.6071 50.9537C31.08 50.9537 33.28 51.1705 35.207 51.6041C37.1501 52.0376 38.788 52.6398 40.1208 53.4106C41.4697 54.1814 42.4974 55.1128 43.204 56.2047C43.9106 57.2806 44.2638 58.4689 44.2638 59.7697V63.2864C44.2638 64.6674 43.9909 65.7835 43.4449 66.6345C42.915 67.4856 42.1763 68.1681 41.2288 68.682C42.0157 68.9068 42.7383 69.1958 43.3967 69.5491C44.0711 69.9024 44.6412 70.336 45.1069 70.8498C45.5886 71.3476 45.958 71.9338 46.2149 72.6082C46.4879 73.2666 46.6244 74.0294 46.6244 74.8965V79.6176C46.6244 80.9183 46.1507 82.1147 45.2032 83.2066C44.2558 84.2825 42.9631 85.2139 41.3252 86.0008C39.6873 86.7876 37.7763 87.3978 35.5924 87.8314C33.4085 88.265 31.08 88.4817 28.6071 88.4817C27.2261 88.4817 25.813 88.4255 24.3677 88.3131C22.9225 88.2168 21.5174 88.0803 20.1524 87.9037C18.8035 87.727 17.5349 87.5263 16.3466 87.3015C15.1583 87.0767 14.1386 86.8438 13.2875 86.6029L13.2875 52.7843C14.1386 52.5435 15.1583 52.3186 16.3466 52.1099C17.5349 51.8851 18.8035 51.6924 20.1524 51.5318C21.5174 51.3551 22.9225 51.2187 24.3677 51.1223C25.813 51.0099 27.2261 50.9537 28.6071 50.9537ZM28.4144 72.006C27.5472 72.006 26.6801 72.014 25.813 72.0301C24.9458 72.0301 24.1028 72.0542 23.2838 72.1024C22.4809 72.1345 21.7101 72.1907 20.9714 72.271C20.2327 72.3513 19.5663 72.4556 18.9722 72.5841V81.7373C19.2933 81.8497 19.7028 81.9782 20.2006 82.1227C20.7145 82.2672 21.3568 82.4037 22.1276 82.5322C22.8984 82.6606 23.8217 82.7731 24.8976 82.8694C25.9735 82.9497 27.2421 82.9898 28.7034 82.9898C30.502 82.9898 32.1158 82.8453 33.545 82.5563C34.9902 82.2672 36.2026 81.8818 37.1822 81.4001C38.1778 80.9183 38.9405 80.3643 39.4705 79.738C40.0004 79.0957 40.2653 78.4293 40.2653 77.7388V75.6673C40.2653 74.9126 39.9281 74.2943 39.2537 73.8126C38.5792 73.3308 37.688 72.9615 36.58 72.7045C35.472 72.4316 34.2034 72.2469 32.7742 72.1505C31.3611 72.0542 29.9078 72.006 28.4144 72.006ZM18.9722 66.0324C19.9678 66.2251 21.0999 66.3535 22.3685 66.4178C23.6531 66.482 25.1064 66.5141 26.7283 66.5141C28.1253 66.5141 29.5144 66.4659 30.8954 66.3696C32.2764 66.2572 33.5209 66.0805 34.6289 65.8397C35.7369 65.5827 36.6362 65.2455 37.3267 64.828C38.0172 64.3944 38.3705 63.8484 38.3865 63.1901V61.6485C38.3865 60.958 38.2179 60.2996 37.8807 59.6733C37.5595 59.031 37.0136 58.4689 36.2428 57.9872C35.488 57.5054 34.4924 57.12 33.2559 56.831C32.0195 56.542 30.502 56.3974 28.7034 56.3974C27.2421 56.3974 25.9735 56.4456 24.8976 56.542C23.8217 56.6222 22.8984 56.7266 22.1276 56.8551C21.3568 56.9836 20.7145 57.12 20.2006 57.2646C19.7028 57.4091 19.2933 57.5376 18.9722 57.65V66.0324ZM69.7001 51.2909C72.1248 51.2909 74.4131 51.5077 76.5649 51.9413C78.7167 52.3748 80.5956 52.977 82.2014 53.7478C83.8233 54.5186 85.1079 55.442 86.0554 56.5179C87.0028 57.5938 87.4765 58.774 87.4765 60.0587V63.9608H81.2138V61.8893C81.2138 61.1988 80.9488 60.5404 80.4189 59.9142C79.889 59.2879 79.1262 58.7339 78.1306 58.2522C77.1511 57.7704 75.9467 57.393 74.5175 57.12C73.1044 56.831 71.4986 56.6865 69.7001 56.6865C67.9658 56.6865 66.3921 56.823 64.9789 57.096C63.5658 57.369 62.3534 57.7383 61.3418 58.204C60.3301 58.6697 59.5513 59.2237 59.0053 59.866C58.4593 60.4923 58.1863 61.1667 58.1863 61.8893V77.4979C58.1863 78.2045 58.4593 78.8789 59.0053 79.5213C59.5513 80.1475 60.3301 80.7015 61.3418 81.1833C62.3534 81.649 63.5658 82.0183 64.9789 82.2913C66.3921 82.5643 67.9658 82.7008 69.7001 82.7008C71.4986 82.7008 73.1044 82.5643 74.5175 82.2913C75.9467 82.0023 77.1511 81.6169 78.1306 81.1351C79.1262 80.6534 79.889 80.0994 80.4189 79.4731C80.9488 78.8468 81.2138 78.1884 81.2138 77.4979V74.0294C79.7204 74.0294 78.3795 74.0695 77.1912 74.1498C76.019 74.2301 75.0153 74.3104 74.1803 74.3907C73.2007 74.5031 72.3336 74.6235 71.5789 74.752L72.2051 68.9228C74.662 68.7301 76.9744 68.6338 79.1423 68.6338C82.0488 68.6338 84.8269 68.7783 87.4765 69.0674V79.3286C87.4765 80.6132 87.0028 81.7935 86.0554 82.8694C85.1079 83.9292 83.8233 84.8446 82.2014 85.6154C80.5956 86.3861 78.7167 86.9883 76.5649 87.4219C74.4131 87.8394 72.1248 88.0482 69.7001 88.0482C67.2753 88.0482 64.987 87.8394 62.8352 87.4219C60.6834 86.9883 58.7965 86.3861 57.1746 85.6154C55.5688 84.8446 54.2922 83.9292 53.3448 82.8694C52.3973 81.7935 51.9236 80.6132 51.9236 79.3286V60.0587C51.9236 58.774 52.3973 57.5938 53.3448 56.5179C54.2922 55.442 55.5688 54.5186 57.1746 53.7478C58.7965 52.977 60.6834 52.3748 62.8352 51.9413C64.987 51.5077 67.2753 51.2909 69.7001 51.2909Z" fill="#111827"/>
</svg>
