<svg width="100" height="100" viewBox="0 0 100 100" fill="none" xmlns="http://www.w3.org/2000/svg">
<rect width="100" height="100" rx="4" fill="white"/>
<path d="M29.6187 12.3391C32.0917 12.3391 34.7092 12.4274 37.4712 12.6041C40.2493 12.7807 43.1398 13.1259 46.1427 13.6398V19.758C44.7938 19.3726 43.4288 19.0595 42.0478 18.8186C40.6668 18.5617 39.2778 18.3609 37.8807 18.2164C36.4997 18.0719 35.1187 17.9675 33.7377 17.9033C32.3567 17.839 30.9837 17.7989 29.6187 17.7828C28.9604 17.7828 28.2297 17.7989 27.4268 17.831C26.64 17.8471 25.7969 17.8792 24.8976 17.9274C24.0144 17.9755 23.0831 18.0478 22.1035 18.1441C21.124 18.2405 20.1283 18.3609 19.1167 18.5054V27.2732H40.169V33.1987H19.1167V42.8818C20.6743 43.1066 22.2962 43.2752 23.9823 43.3877C25.6684 43.5001 27.5472 43.5563 29.6187 43.5563C32.4129 43.5563 35.191 43.4198 37.953 43.1468C40.715 42.8738 43.4449 42.3519 46.1427 41.5811V47.6993C43.1398 48.2131 40.2573 48.5584 37.4953 48.735C34.7333 48.9117 32.1399 49 29.7151 49C27.2421 49 24.6166 48.9117 21.8385 48.735C19.0765 48.5584 16.178 48.2131 13.143 47.6993V13.6398C16.178 13.1259 19.0765 12.7807 21.8385 12.6041C24.6006 12.4274 27.194 12.3391 29.6187 12.3391ZM69.3147 12.2909C71.7395 12.2909 74.0277 12.5077 76.1795 12.9413C78.3313 13.3748 80.2102 13.977 81.816 14.7478C83.4379 15.5186 84.7225 16.442 85.67 17.5179C86.6174 18.5938 87.0911 19.774 87.0911 21.0587V24.9608H80.8284V22.8893C80.8284 22.1988 80.5634 21.5404 80.0335 20.9142C79.5036 20.2879 78.7408 19.7339 77.7452 19.2522C76.7657 18.7704 75.5613 18.393 74.1321 18.12C72.719 17.831 71.1132 17.6865 69.3147 17.6865C67.5804 17.6865 66.0067 17.823 64.5935 18.096C63.1804 18.369 61.968 18.7383 60.9564 19.204C59.9447 19.6697 59.1659 20.2237 58.6199 20.866C58.0739 21.4923 57.8009 22.1667 57.8009 22.8893V38.4979C57.8009 39.2045 58.0739 39.8789 58.6199 40.5213C59.1659 41.1475 59.9447 41.7015 60.9564 42.1833C61.968 42.649 63.1804 43.0183 64.5935 43.2913C66.0067 43.5643 67.5804 43.7008 69.3147 43.7008C71.1132 43.7008 72.719 43.5643 74.1321 43.2913C75.5613 43.0023 76.7657 42.6169 77.7452 42.1351C78.7408 41.6534 79.5036 41.0994 80.0335 40.4731C80.5634 39.8468 80.8284 39.1884 80.8284 38.4979V35.0294C79.335 35.0294 77.9941 35.0695 76.8058 35.1498C75.6336 35.2301 74.6299 35.3104 73.7949 35.3907C72.8154 35.5031 71.9482 35.6235 71.1935 35.752L71.8197 29.9228C74.2766 29.7301 76.589 29.6338 78.7569 29.6338C81.6634 29.6338 84.4415 29.7783 87.0911 30.0674V40.3286C87.0911 41.6132 86.6174 42.7935 85.67 43.8694C84.7225 44.9292 83.4379 45.8446 81.816 46.6154C80.2102 47.3861 78.3313 47.9883 76.1795 48.4219C74.0277 48.8394 71.7395 49.0482 69.3147 49.0482C66.8899 49.0482 64.6016 48.8394 62.4498 48.4219C60.298 47.9883 58.4111 47.3861 56.7893 46.6154C55.1834 45.8446 53.9068 44.9292 52.9594 43.8694C52.0119 42.7935 51.5382 41.6132 51.5382 40.3286V21.0587C51.5382 19.774 52.0119 18.5938 52.9594 17.5179C53.9068 16.442 55.1834 15.5186 56.7893 14.7478C58.4111 13.977 60.298 13.3748 62.4498 12.9413C64.6016 12.5077 66.8899 12.2909 69.3147 12.2909ZM29.0407 51.2909C31.2246 51.2909 33.3362 51.4274 35.3756 51.7004C37.4311 51.9573 39.2697 52.407 40.8916 53.0493C42.5296 53.6756 43.8704 54.5266 44.9142 55.6025C45.974 56.6784 46.5923 58.0193 46.7689 59.6251L40.5062 61.3594C40.5062 60.3959 40.177 59.6091 39.5186 58.9989C38.8763 58.3726 38.0172 57.8828 36.9413 57.5295C35.8815 57.1602 34.661 56.9033 33.28 56.7587C31.9151 56.6142 30.502 56.542 29.0407 56.542C27.6115 56.542 26.2064 56.6062 24.8254 56.7347C23.4444 56.8631 22.1999 57.104 21.0918 57.4573C19.9999 57.8106 19.1167 58.3003 18.4422 58.9266C17.7678 59.5529 17.4306 60.3638 17.4306 61.3594V67.0922H46.7689V79.5694C46.7689 80.6453 46.5281 81.6088 46.0463 82.4599C45.5806 83.2949 44.9303 84.0256 44.0952 84.6519C43.2763 85.2621 42.2967 85.784 41.1566 86.2175C40.0325 86.6351 38.8121 86.9723 37.4953 87.2292C36.1946 87.4861 34.8216 87.6708 33.3764 87.7832C31.9311 87.8956 30.4859 87.9518 29.0407 87.9518C27.5633 87.9518 26.11 87.8956 24.6808 87.7832C23.2517 87.6708 21.8947 87.4861 20.6101 87.2292C19.3254 86.9723 18.1291 86.6351 17.0211 86.2175C15.9291 85.784 14.9656 85.2621 14.1306 84.6519C13.2956 84.0256 12.6211 83.2949 12.1073 82.4599C11.5934 81.6249 11.2803 80.6614 11.1679 79.5694L17.4306 77.8351C17.4306 78.8308 17.7678 79.6417 18.4422 80.268C19.1167 80.8942 19.9999 81.384 21.0918 81.7373C22.1999 82.0906 23.4444 82.3314 24.8254 82.4599C26.2064 82.5884 27.6115 82.6526 29.0407 82.6526C30.502 82.6526 31.9151 82.5884 33.28 82.4599C34.661 82.3154 35.8815 82.0665 36.9413 81.7132C38.0172 81.3439 38.8763 80.8461 39.5186 80.2198C40.177 79.5935 40.5062 78.7986 40.5062 77.8351V71.9578H11.1679V59.6251C11.1679 58.5492 11.4007 57.6018 11.8664 56.7828C12.3481 55.9478 12.9985 55.2252 13.8175 54.615C14.6525 53.9887 15.6401 53.4668 16.7802 53.0493C17.9203 52.6157 19.1488 52.2705 20.4656 52.0135C21.7984 51.7566 23.1874 51.5719 24.6327 51.4595C26.094 51.3471 27.5633 51.2909 29.0407 51.2909ZM62.3293 51.6763C62.249 52.3989 62.1768 53.1697 62.1126 53.9887C62.0644 54.8077 62.0403 55.6266 62.0403 56.4456C62.0403 57.8266 62.2169 59.047 62.5702 60.1069C62.9395 61.1507 63.4374 62.0901 64.0636 62.9251C64.6899 63.7441 65.4125 64.4827 66.2315 65.1411C67.0665 65.7835 67.9497 66.3856 68.8811 66.9477C69.8125 66.3856 70.6957 65.7835 71.5307 65.1411C72.3657 64.4827 73.0964 63.7441 73.7226 62.9251C74.365 62.0901 74.8708 61.1507 75.2401 60.1069C75.6255 59.047 75.8182 57.8266 75.8182 56.4456C75.8182 55.6266 75.7861 54.8077 75.7219 53.9887C75.6577 53.1697 75.5774 52.3989 75.481 51.6763C76.7978 51.7245 78.0503 51.8128 79.2386 51.9413C80.443 52.0537 81.5028 52.1741 82.4182 52.3026C83.4941 52.4632 84.4897 52.6237 85.405 52.7843V58.9025C85.1802 58.8383 84.8831 58.758 84.5138 58.6616C84.1444 58.5653 83.759 58.4689 83.3576 58.3726C82.9561 58.2762 82.5627 58.1879 82.1773 58.1076C81.808 58.0273 81.5028 57.9711 81.262 57.939C81.2459 59.5127 81.0452 60.9098 80.6598 62.1302C80.2744 63.3506 79.7445 64.4426 79.07 65.4061C78.4116 66.3696 77.6408 67.2207 76.7576 67.9593C75.8744 68.698 74.935 69.3725 73.9394 69.9827L71.7716 71.2352V82.6526C73.8752 82.5884 75.762 82.4519 77.4321 82.2431C79.1021 82.0344 80.5313 81.8176 81.7196 81.5928C83.1006 81.3198 84.3291 81.0307 85.405 80.7256V86.8438C82.4021 87.3577 79.5197 87.7029 76.7576 87.8796C73.9956 88.0562 71.4022 88.1445 68.9774 88.1445C66.5045 88.1445 63.879 88.0562 61.1009 87.8796C58.3389 87.7029 55.4404 87.3577 52.4054 86.8438V80.7256C53.4813 81.0307 54.7097 81.3198 56.0907 81.5928C57.279 81.8176 58.7082 82.0344 60.3783 82.2431C62.0483 82.4519 63.9352 82.5884 66.0388 82.6526V71.2352L63.9191 69.9827C62.9074 69.3725 61.96 68.698 61.0768 67.9593C60.1936 67.2207 59.4228 66.3696 58.7644 65.4061C58.106 64.4426 57.5841 63.3506 57.1987 62.1302C56.8133 60.9098 56.6126 59.5127 56.5966 57.939C56.3557 57.9711 56.0425 58.0273 55.6571 58.1076C55.2878 58.1879 54.8944 58.2762 54.4769 58.3726C54.0754 58.4689 53.682 58.5653 53.2966 58.6616C52.9273 58.758 52.6302 58.8383 52.4054 58.9025V52.7843C53.3207 52.6237 54.3163 52.4632 55.3922 52.3026C56.3075 52.1741 57.3593 52.0537 58.5476 51.9413C59.752 51.8128 61.0126 51.7245 62.3293 51.6763Z" fill="#111827"/>
</svg>
